<svg xmlns:x="http://ns.adobe.com/Extensibility/1.0/" xmlns:i="http://ns.adobe.com/AdobeIllustrator/10.0/" xmlns:graph="http://ns.adobe.com/Graphs/1.0/" xmlns="http://www.w3.org/2000/svg" xmlns:xlink="http://www.w3.org/1999/xlink" xmlns:a="http://ns.adobe.com/AdobeSVGViewerExtensions/3.0/" version="1.1" id="Your_Icon" x="0px" y="0px" width="40px" height="40px" viewBox="5.0 -10.0 100.0 135.0" enable-background="new 0 0 100 100" xml:space="preserve">
<g>
	<rect x="42.938" y="6.904" fill="#C94900" width="13.36" height="6.249"/>
	<path fill="#C94900" d="M74.26,24.058l2.687-4.82l-9.599-5.349l-2.545,4.566c-4.562-1.886-9.56-2.933-14.803-2.933   c-21.419,0-38.784,17.365-38.784,38.784c0,21.42,17.364,38.784,38.784,38.784c21.418,0,38.784-17.364,38.784-38.784   C88.783,42.072,83.112,31.166,74.26,24.058z M50,87.919c-18.563,0-33.613-15.049-33.613-33.612S31.436,20.693,50,20.693   c18.563,0,33.612,15.05,33.612,33.613S68.562,87.919,50,87.919z"/>
	<polygon fill="#C94900" points="47.833,77.245 47.857,85.877 49.875,85.857 49.85,77.224  "/>
	
		<rect x="34.468" y="73.144" transform="matrix(-0.862 -0.5069 0.5069 -0.862 26.7921 162.2113)" fill="#C94900" width="2.019" height="8.63"/>
	<polygon fill="#C94900" points="21.625,68.506 22.63,70.256 30.118,65.97 29.12,64.216  "/>
	<rect x="18.319" y="52.566" transform="matrix(1 -0.0029 0.0029 1 -0.1575 0.0668)" fill="#C94900" width="8.632" height="2.018"/>
	
		<rect x="22.281" y="39.152" transform="matrix(-0.8665 -0.4992 0.4992 -0.8665 29.5945 88.2387)" fill="#C94900" width="8.633" height="2.019"/>
	<polygon fill="#C94900" points="39.797,33.672 35.448,26.219 33.707,27.239 38.06,34.697  "/>
	<polygon fill="#C94900" points="51.408,31.415 51.356,22.788 49.339,22.793 49.392,31.427  "/>
	<polygon fill="#C94900" points="66.817,27.988 65.074,26.967 60.699,34.401 62.437,35.428  "/>
	<polygon fill="#C94900" points="77.607,40.148 76.604,38.4 69.118,42.683 70.113,44.441  "/>
	
		<rect x="68.319" y="67.483" transform="matrix(-0.8664 -0.4994 0.4994 -0.8664 101.361 164.1073)" fill="#C94900" width="8.635" height="2.019"/>
	<polygon fill="#C94900" points="59.437,74.977 63.789,82.439 65.527,81.413 61.18,73.963  "/>
	<path fill="#C94900" d="M54.946,53.503C54.56,51.11,52.501,49.279,50,49.279c-2.502,0-4.562,1.832-4.949,4.224h-6.623v1.607h6.623   c0.387,2.393,2.446,4.224,4.949,4.224c2.501,0,4.56-1.831,4.947-4.224h25.178v-1.607H54.946z"/>
</g>
</svg>