<svg xmlns="http://www.w3.org/2000/svg" xmlns:xlink="http://www.w3.org/1999/xlink" version="1.1" id="Layer_1" x="0px" y="0px" width="50px" height="50px" viewBox="5.0 -10.0 100.0 135.0" enable-background="new 0 0 100 100" xml:space="preserve">
<path d="M2.44,40.986c-1.317,0.513-1.973,1.996-1.458,3.319c0.511,1.316,2,1.972,3.316,1.457l17.423-6.777l1.051-5.435  c0.027-0.182,0.083-0.352,0.132-0.525L2.44,40.986z M44.718,75.666l-4.79-14.092c-0.211-0.833-0.747-1.58-1.561-2.025l-8.085-4.436  l-0.352,1.772c-0.009,0.048-0.029,0.092-0.04,0.139c-0.021,0.087-0.047,0.172-0.073,0.258c-0.058,0.189-0.126,0.37-0.207,0.545  c-0.033,0.075-0.051,0.154-0.087,0.229l-1.537,3.107l6.185,3.391l4.474,13.17c0,0,0.001,0.002,0.001,0.004  c0.569,1.675,2.387,2.572,4.067,2C44.392,79.165,45.285,77.344,44.718,75.666z" style="fill:#C94900"/>
<path d="M70.586,59.188c-0.753-0.498-1.363-1.241-1.729-2.052l-4.174,8.444l-12.993-0.866c-0.001,0-0.004,0-0.004,0  c-1.767-0.119-3.295,1.217-3.413,2.983c-0.116,1.767,1.219,3.295,2.983,3.411l15.132,1.007c0.002,0,0.005-0.001,0.006-0.001  c1.254,0.081,2.491-0.583,3.083-1.778l4.562-9.229C74.042,61.106,71.339,59.687,70.586,59.188z" style="fill:#C94900"/>
<circle cx="80.13" cy="25.212" r="5.196" style="fill:#C94900"/>
<path d="M97.905,45.39l-10.19-1.893l-3.961-6.826l-1.513,7.605l1.634,2.815c0.382,0.659,1.014,1.075,1.707,1.216  c0.013,0.003,11.386,2.124,11.386,2.124c1.394,0.259,2.729-0.658,2.989-2.053C100.214,46.988,99.298,45.649,97.905,45.39z" style="fill:#C94900"/>
<circle cx="30.27" cy="25.212" r="5.196" style="fill:#C94900"/>
<path d="M47.988,45.338l-10.161-1.887l-5.668-9.767c-0.35-0.66-0.981-1.165-1.766-1.322l-3.125-0.621  c-1.381-0.274-2.668,0.645-2.858,2.04l-4.092,21.151c-0.103,0.757,0.145,1.5,0.605,2.071l-4.504,9.111l-13-0.866  c-1.768-0.118-3.296,1.217-3.413,2.984c-0.117,1.766,1.218,3.293,2.982,3.411c0,0,15.138,1.004,15.14,1.004  c1.256,0.082,2.495-0.581,3.088-1.777l6.72-13.596c0.066-0.133,0.244-0.647,0.27-0.777l2.875-14.453l2.908,5.011  c0.432,0.744,1.167,1.114,1.977,1.264l11.084,2.059c1.394,0.261,2.728-0.658,2.987-2.053C50.298,46.935,49.381,45.597,47.988,45.338  z" style="fill:#C94900"/>
<path d="M70.178,54.933c0.235-1.255,3.224-16.663,3.224-16.663l-7.593,2.953c-0.007,0.003-0.012,0.009-0.019,0.013L56.5,44.846  l1.995,2.822c0.243,0.345,0.161,0.822-0.183,1.064c-0.223,0.157-0.5,0.179-0.734,0.083c-0.128-0.054-0.244-0.143-0.331-0.265  l-2.215-3.133l-1.012,0.394c-1.316,0.516-2.806-0.14-3.317-1.457c-0.489-1.263,0.085-2.672,1.284-3.243l-4.505-6.372  c-0.243-0.346-0.161-0.822,0.184-1.065c0.344-0.244,0.82-0.162,1.064,0.183l4.721,6.677c0,0,22.033-8.556,22.346-8.677  s0.862-0.208,1.333-0.115l3.124,0.621c1.384,0.277,2.29,1.632,2.015,3.017l-3.763,18.917l9.665,5.3  c0.74,0.405,1.244,1.1,1.435,1.661s4.964,14.497,4.964,14.497c0.568,1.676-0.328,3.495-2.004,4.063  c-1.681,0.569-3.499-0.328-4.068-2.003l0-0.001l-4.478-13.184c0,0-11.43-6.271-12.224-6.704  C70.597,57.268,69.996,55.902,70.178,54.933z" style="fill:#C94900"/>
</svg>